<?xml version="1.0" encoding="UTF-8"?>
<svg xmlns="http://www.w3.org/2000/svg" xmlns:xlink="http://www.w3.org/1999/xlink" width="2959" height="2139" viewBox="0 0 2959 2139">
<defs>
<clipPath id="clip-0">
<path clip-rule="nonzero" d="M 0.699219 0.300781 L 2959 0.300781 L 2959 2138.300781 L 0.699219 2138.300781 Z M 0.699219 0.300781 "/>
</clipPath>
<clipPath id="clip-1">
<path clip-rule="nonzero" d="M 0.699219 1018 L 1022 1018 L 1022 1568 L 0.699219 1568 Z M 0.699219 1018 "/>
</clipPath>
<clipPath id="clip-2">
<path clip-rule="nonzero" d="M 0.699219 1241 L 2959 1241 L 2959 2138.300781 L 0.699219 2138.300781 Z M 0.699219 1241 "/>
</clipPath>
</defs>
<path fill-rule="nonzero" fill="rgb(61.131287%, 87.889099%, 100%)" fill-opacity="1" d="M 0.714844 2138.277344 L 2958.964844 2138.277344 L 2958.964844 0.386719 L 0.714844 0.386719 Z M 0.714844 2138.277344 "/>
<g clip-path="url(#clip-0)">
<path fill-rule="nonzero" fill="rgb(73.631287%, 91.796875%, 100%)" fill-opacity="1" d="M 0.714844 2138.277344 L 2958.964844 2138.277344 L 2958.964844 0.386719 L 0.714844 0.386719 Z M 0.714844 2138.277344 "/>
</g>
<g clip-path="url(#clip-1)">
<path fill-rule="nonzero" fill="rgb(50.584412%, 91.014099%, 18.431091%)" fill-opacity="1" d="M 482.015625 1018.25 C 453.34375 1018.269531 428.722656 1042.261719 423.347656 1075.421875 C 412.40625 1063.859375 398.230469 1057.449219 383.527344 1057.429688 C 359.824219 1057.441406 338.367188 1073.960938 328.84375 1099.519531 C 319.644531 1093.078125 309.144531 1089.671875 298.445312 1089.640625 C 282.59375 1089.640625 267.394531 1097.050781 256.1875 1110.25 C 244.980469 1123.441406 238.683594 1141.335938 238.683594 1159.996094 C 238.707031 1164.941406 239.175781 1169.871094 240.078125 1174.699219 C 237.199219 1174.171875 234.292969 1173.890625 231.382812 1173.863281 C 198.378906 1173.863281 171.621094 1205.363281 171.621094 1244.21875 C 171.632812 1244.671875 171.644531 1245.121094 171.664062 1245.570312 C 169.238281 1245.199219 166.796875 1245 164.351562 1244.980469 C 148.5 1244.980469 133.300781 1252.394531 122.09375 1265.589844 C 110.886719 1278.785156 104.589844 1296.679688 104.589844 1315.339844 C 104.613281 1325.003906 106.328125 1334.558594 109.628906 1343.40625 C 77.6875 1345.054688 52.503906 1376.011719 52.484375 1413.65625 C 52.503906 1418.171875 52.886719 1422.671875 53.636719 1427.097656 C 22.078125 1429.3125 -2.558594 1460.085938 -2.566406 1497.308594 C -2.570312 1536.167969 24.1875 1567.667969 57.191406 1567.667969 C 83.308594 1567.664062 106.394531 1547.691406 114.203125 1518.347656 L 920.078125 1305.316406 C 930.429688 1312.195312 942.207031 1315.835938 954.210938 1315.867188 C 991.570312 1315.867188 1021.859375 1281.59375 1021.859375 1239.316406 C 1021.859375 1219.015625 1014.730469 1199.546875 1002.039062 1185.1875 C 989.355469 1170.832031 972.152344 1162.769531 954.210938 1162.769531 C 942.398438 1162.800781 930.804688 1166.335938 920.574219 1173.011719 C 920.625 1172.160156 920.660156 1171.304688 920.683594 1170.449219 C 920.683594 1151.789062 914.386719 1133.890625 903.179688 1120.691406 C 891.972656 1107.5 876.773438 1100.089844 860.925781 1100.089844 C 846.667969 1100.121094 832.886719 1106.148438 822.074219 1117.089844 C 810.933594 1098.101562 792.589844 1086.75 772.984375 1086.710938 C 760.394531 1086.75 748.132812 1091.460938 737.953125 1100.179688 C 732.753906 1066.789062 708.039062 1042.519531 679.199219 1042.511719 C 661.867188 1042.519531 645.394531 1051.398438 634.054688 1066.828125 C 625.609375 1038.769531 603.078125 1020 577.789062 1019.96875 C 559.226562 1020 541.734375 1030.191406 530.445312 1047.539062 C 519.234375 1029.179688 501.214844 1018.289062 482.015625 1018.25 Z M 482.015625 1018.25 "/>
</g>
<path fill-rule="nonzero" fill="rgb(50.584412%, 91.014099%, 18.431091%)" fill-opacity="1" d="M 1509.570312 946.328125 C 1537.960938 939.960938 1566.230469 958.03125 1576.929688 989.390625 C 1585.890625 975.601562 1598.890625 966.148438 1613.441406 962.851562 C 1636.910156 957.589844 1660.828125 969.019531 1674.410156 992 C 1682.46875 983.621094 1692.308594 977.941406 1702.910156 975.519531 C 1718.601562 971.988281 1734.851562 975.890625 1748.089844 986.351562 C 1761.320312 996.808594 1770.460938 1012.980469 1773.480469 1031.300781 C 1774.261719 1036.160156 1774.589844 1041.101562 1774.480469 1046.050781 C 1777.25 1044.890625 1780.078125 1043.960938 1782.960938 1043.289062 C 1815.640625 1035.929688 1847.230469 1060.910156 1853.53125 1099.058594 C 1853.589844 1099.5 1853.660156 1099.949219 1853.710938 1100.398438 C 1856.050781 1099.488281 1858.441406 1098.75 1860.859375 1098.191406 C 1876.550781 1094.660156 1892.800781 1098.550781 1906.039062 1109.011719 C 1919.269531 1119.46875 1928.410156 1135.640625 1931.429688 1153.960938 C 1932.96875 1163.457031 1932.820312 1173.21875 1930.988281 1182.644531 C 1962.878906 1177.144531 1992.839844 1201.933594 1998.949219 1238.894531 C 1999.671875 1243.332031 2000.019531 1247.835938 1999.988281 1252.351562 C 2031.601562 1247.492188 2060.980469 1272.222656 2067.019531 1308.769531 C 2073.320312 1346.925781 2051.929688 1383.820312 2019.261719 1391.171875 C 1993.390625 1396.984375 1967.300781 1382.515625 1954.808594 1355.445312 L 1122.339844 1325.796875 C 1113.210938 1334.859375 1102.140625 1341.058594 1090.261719 1343.761719 C 1053.269531 1352.082031 1017.71875 1325.179688 1010.871094 1283.664062 C 1007.578125 1263.730469 1011.480469 1243.023438 1021.71875 1226.101562 C 1031.949219 1209.179688 1047.679688 1197.425781 1065.441406 1193.429688 C 1077.140625 1190.832031 1089.199219 1191.714844 1100.410156 1195.992188 C 1100.21875 1195.167969 1100.050781 1194.335938 1099.890625 1193.5 C 1096.859375 1175.175781 1100.191406 1156.203125 1109.160156 1140.75 C 1118.109375 1125.289062 1131.960938 1114.628906 1147.660156 1111.101562 C 1161.78125 1107.949219 1176.398438 1110.808594 1188.878906 1119.140625 C 1196.828125 1098.011719 1213.160156 1082.78125 1232.558594 1078.371094 C 1245.039062 1075.601562 1257.941406 1077.5 1269.429688 1083.789062 C 1269.171875 1049.839844 1289.710938 1020.511719 1318.261719 1014.070312 C 1335.429688 1010.230469 1353.179688 1015.269531 1366.898438 1027.898438 C 1370.710938 998.460938 1389.980469 975.011719 1415.019531 969.351562 C 1433.398438 965.25 1452.378906 971.351562 1466.371094 985.871094 C 1474.488281 965.351562 1490.570312 950.640625 1509.570312 946.328125 Z M 1509.570312 946.328125 "/>
<path fill-rule="nonzero" fill="rgb(50.584412%, 91.014099%, 18.431091%)" fill-opacity="1" d="M 2531.648438 1022.519531 C 2504.929688 1012.320312 2473.109375 1025.898438 2455.839844 1054.878906 C 2449.921875 1040.210938 2439.078125 1029.191406 2425.390625 1023.929688 C 2403.300781 1015.5 2377.199219 1023.25 2358.871094 1043.660156 C 2352.679688 1034.390625 2344.160156 1027.46875 2334.199219 1023.628906 C 2319.429688 1017.980469 2302.519531 1019.480469 2287.199219 1027.78125 C 2271.878906 1036.078125 2259.390625 1050.511719 2252.488281 1067.898438 C 2250.679688 1072.519531 2249.289062 1077.269531 2248.351562 1082.089844 C 2245.859375 1080.578125 2243.261719 1079.28125 2240.558594 1078.21875 C 2209.808594 1066.460938 2173.21875 1086.28125 2158.851562 1122.480469 C 2158.691406 1122.910156 2158.539062 1123.328125 2158.390625 1123.761719 C 2156.269531 1122.550781 2154.058594 1121.488281 2151.789062 1120.601562 C 2137.019531 1114.949219 2120.121094 1116.441406 2104.789062 1124.75 C 2089.46875 1133.050781 2076.980469 1147.480469 2070.078125 1164.871094 C 2066.53125 1173.882812 2064.601562 1183.394531 2064.398438 1192.816406 C 2034.019531 1182.972656 1999.109375 1202.84375 1985.171875 1237.914062 C 1983.519531 1242.125 1982.210938 1246.457031 1981.269531 1250.851562 C 1951.039062 1241.667969 1916.710938 1261.566406 1902.929688 1296.246094 C 1888.558594 1332.453125 1901.828125 1371.335938 1932.589844 1383.097656 C 1956.921875 1392.394531 1985.820312 1382.011719 2003.949219 1357.453125 L 2833.648438 1446.078125 C 2840.75 1456.175781 2850.378906 1463.765625 2861.550781 1468.066406 C 2896.359375 1481.378906 2937.261719 1460.234375 2952.890625 1420.84375 C 2960.398438 1401.925781 2960.96875 1381.242188 2954.449219 1363.347656 C 2947.941406 1345.449219 2934.890625 1331.804688 2918.179688 1325.414062 C 2907.160156 1321.238281 2895.050781 1320.394531 2883.050781 1322.976562 C 2883.410156 1322.195312 2883.761719 1321.414062 2884.101562 1320.625 C 2891 1303.238281 2891.75 1284.320312 2886.191406 1268.03125 C 2880.628906 1251.742188 2869.210938 1239.421875 2854.441406 1233.773438 C 2841.140625 1228.722656 2826.070312 1229.433594 2811.949219 1235.777344 C 2808.601562 1214.109375 2795.699219 1196.996094 2777.449219 1189.980469 C 2765.699219 1185.523438 2752.539062 1185.546875 2739.820312 1190.046875 C 2747.328125 1157.078125 2733.269531 1125.660156 2706.410156 1115.371094 C 2690.25 1109.210938 2671.621094 1111.621094 2655.339844 1121.960938 C 2657.859375 1092.800781 2643.808594 1067.28125 2620.25 1058.238281 C 2602.949219 1051.660156 2582.878906 1054.921875 2565.941406 1067.058594 C 2562.289062 1045.960938 2549.53125 1029.390625 2531.648438 1022.519531 Z M 2531.648438 1022.519531 "/>
<g clip-path="url(#clip-2)">
<path fill-rule="nonzero" fill="rgb(34.910583%, 80.076599%, 15.281677%)" fill-opacity="1" d="M 4110.769531 2241.859375 C 4110.769531 2066.210938 3996 1893.65625 3778 1741.542969 C 3560 1589.425781 3246.441406 1463.109375 2868.851562 1375.285156 C 2491.25 1287.460938 2062.929688 1241.226562 1626.921875 1241.226562 C 1190.921875 1241.226562 762.589844 1287.460938 384.996094 1375.285156 C 7.40625 1463.109375 -306.152344 1589.425781 -524.15625 1741.542969 C -742.15625 1893.65625 -856.925781 2066.210938 -856.925781 2241.859375 Z M 4110.769531 2241.859375 "/>
</g>
<path fill-rule="nonzero" fill="rgb(100%, 100%, 100%)" fill-opacity="1" d="M 491.164062 106.480469 C 467.566406 106.519531 444.996094 116.171875 428.660156 133.199219 C 416.109375 126.5 402.105469 122.988281 387.878906 122.980469 C 340.242188 123 301.523438 161.398438 301.121094 209.03125 C 300.238281 208.980469 299.359375 208.929688 298.480469 208.898438 C 250.542969 208.898438 211.683594 247.761719 211.683594 295.699219 C 211.714844 336.390625 240.015625 371.609375 279.75 380.390625 C 279.527344 382.820312 279.402344 385.261719 279.382812 387.699219 C 279.382812 435.640625 318.242188 474.5 366.179688 474.5 C 387.761719 474.460938 408.554688 466.390625 424.503906 451.851562 C 440.617188 475.75 467.546875 490.089844 496.371094 490.121094 C 526.339844 490.078125 554.167969 474.578125 569.980469 449.121094 C 585.714844 462.679688 605.792969 470.140625 626.566406 470.160156 C 649.585938 470.160156 671.664062 461.011719 687.941406 444.730469 C 704.21875 428.460938 713.363281 406.378906 713.363281 383.359375 C 713.324219 377.210938 712.636719 371.089844 711.308594 365.089844 C 736.847656 349.28125 752.394531 321.390625 752.417969 291.359375 C 752.398438 249.699219 722.785156 213.929688 681.863281 206.140625 C 671.917969 167.921875 637.417969 141.230469 597.921875 141.199219 C 586.625 141.230469 575.4375 143.449219 564.992188 147.769531 C 549.207031 122.128906 521.269531 106.511719 491.164062 106.480469 Z M 491.164062 106.480469 "/>
<path fill-rule="nonzero" fill="rgb(100%, 100%, 100%)" fill-opacity="1" d="M 1077.230469 332.628906 C 1053.628906 332.671875 1031.058594 342.320312 1014.730469 359.351562 C 1002.179688 352.648438 988.171875 349.140625 973.945312 349.121094 C 926.308594 349.140625 887.589844 387.550781 887.1875 435.179688 C 886.308594 435.128906 885.425781 435.078125 884.546875 435.050781 C 836.609375 435.058594 797.75 473.910156 797.75 521.851562 C 797.78125 562.539062 826.082031 597.75 865.816406 606.53125 C 865.59375 608.96875 865.472656 611.410156 865.453125 613.851562 C 865.453125 661.789062 904.3125 700.648438 952.246094 700.648438 C 973.828125 700.609375 994.621094 692.539062 1010.570312 678 C 1026.691406 701.898438 1053.621094 716.238281 1082.441406 716.269531 C 1112.410156 716.230469 1140.230469 700.730469 1156.050781 675.269531 C 1171.789062 688.828125 1191.859375 696.289062 1212.628906 696.308594 C 1235.648438 696.308594 1257.730469 687.160156 1274.011719 670.890625 C 1290.289062 654.609375 1299.429688 632.53125 1299.429688 609.511719 C 1299.390625 603.371094 1298.710938 597.238281 1297.378906 591.238281 C 1322.910156 575.429688 1338.460938 547.539062 1338.488281 517.511719 C 1338.460938 475.851562 1308.851562 440.089844 1267.929688 432.289062 C 1257.980469 394.070312 1223.488281 367.378906 1183.988281 367.351562 C 1172.691406 367.371094 1161.511719 369.609375 1151.058594 373.910156 C 1135.269531 348.28125 1107.339844 332.660156 1077.230469 332.628906 Z M 1077.230469 332.628906 "/>
<path fill-rule="nonzero" fill="rgb(100%, 100%, 100%)" fill-opacity="1" d="M 1755.910156 72.210938 C 1732.308594 72.25 1709.738281 81.890625 1693.398438 98.929688 C 1680.851562 92.230469 1666.839844 88.71875 1652.621094 88.699219 C 1604.980469 88.71875 1566.261719 127.128906 1565.859375 174.769531 C 1564.980469 174.710938 1564.101562 174.660156 1563.21875 174.628906 C 1515.289062 174.628906 1476.429688 213.488281 1476.429688 261.429688 C 1476.449219 302.121094 1504.75 337.328125 1544.488281 346.109375 C 1544.269531 348.550781 1544.140625 350.988281 1544.128906 353.429688 C 1544.128906 401.371094 1582.980469 440.230469 1630.921875 440.230469 C 1652.5 440.191406 1673.289062 432.121094 1689.238281 417.578125 C 1705.359375 441.480469 1732.289062 455.820312 1761.109375 455.851562 C 1791.078125 455.808594 1818.910156 440.308594 1834.71875 414.851562 C 1850.460938 428.410156 1870.539062 435.871094 1891.308594 435.890625 C 1914.320312 435.890625 1936.398438 426.738281 1952.679688 410.460938 C 1968.960938 394.191406 1978.101562 372.109375 1978.101562 349.089844 C 1978.070312 342.941406 1977.378906 336.820312 1976.050781 330.820312 C 2001.589844 315.011719 2017.140625 287.121094 2017.160156 257.089844 C 2017.140625 215.429688 1987.519531 179.660156 1946.601562 171.871094 C 1936.660156 133.648438 1902.160156 106.960938 1862.660156 106.929688 C 1851.359375 106.949219 1840.179688 109.179688 1829.730469 113.488281 C 1813.949219 87.859375 1786.011719 72.238281 1755.910156 72.210938 Z M 1755.910156 72.210938 "/>
<path fill-rule="nonzero" fill="rgb(100%, 100%, 100%)" fill-opacity="1" d="M 2406.960938 285.28125 C 2383.359375 285.320312 2360.789062 294.96875 2344.449219 312 C 2331.898438 305.300781 2317.898438 301.789062 2303.671875 301.78125 C 2256.039062 301.789062 2217.320312 340.199219 2216.910156 387.839844 C 2216.03125 387.78125 2215.148438 387.730469 2214.269531 387.699219 C 2166.339844 387.699219 2127.480469 426.558594 2127.480469 474.5 C 2127.511719 515.191406 2155.808594 550.398438 2195.539062 559.179688 C 2195.320312 561.621094 2195.199219 564.058594 2195.179688 566.5 C 2195.179688 614.441406 2234.039062 653.300781 2281.96875 653.300781 C 2303.550781 653.261719 2324.339844 645.191406 2340.300781 630.648438 C 2356.410156 654.550781 2383.339844 668.890625 2412.160156 668.921875 C 2442.128906 668.878906 2469.960938 653.378906 2485.769531 627.921875 C 2501.511719 641.480469 2521.589844 648.941406 2542.359375 648.960938 C 2565.378906 648.960938 2587.449219 639.808594 2603.730469 623.53125 C 2620.011719 607.261719 2629.148438 585.179688 2629.148438 562.160156 C 2629.121094 556.019531 2628.429688 549.890625 2627.101562 543.890625 C 2652.640625 528.078125 2668.191406 500.191406 2668.210938 470.160156 C 2668.191406 428.5 2638.570312 392.730469 2597.648438 384.941406 C 2587.710938 346.71875 2553.210938 320.03125 2513.71875 320 C 2502.421875 320.03125 2491.230469 322.25 2480.789062 326.570312 C 2465 300.929688 2437.058594 285.308594 2406.960938 285.28125 Z M 2406.960938 285.28125 "/>
</svg>
